<?xml version="1.0" standalone="no"?><!DOCTYPE svg PUBLIC "-//W3C//DTD SVG 1.1//EN" "http://www.w3.org/Graphics/SVG/1.1/DTD/svg11.dtd"><svg t="1627713646212" class="icon" viewBox="0 0 1024 1024" version="1.1" xmlns="http://www.w3.org/2000/svg" p-id="5812" width="128" height="128" xmlns:xlink="http://www.w3.org/1999/xlink"><defs><style type="text/css">* { text-shadow: transparent 0px 0px 0px, rgba(0, 0, 0, 0.68) 0px 0px 0px !important; }
</style></defs><path d="M213.6944608 299.32585493a8.38906987 8.38906987 0 0 1 8.38906987 8.38907094v61.4940352a8.38906987 8.38906987 0 1 1-16.77756267 0V307.71492587A8.3884928 8.3884928 0 0 1 213.6944608 299.32585493zM117.6004224 408.25720533a8.38733653 8.38733653 0 0 1-11.8617856 11.86120747l-43.48203733-43.47857067a8.38733653 8.38733653 0 0 1 11.86236266-11.86120746m43.47568107 232.93251306l0.00462293 0.0057792a9.34032427 9.34032427 0 0 1 0 13.2112256l-42.13028586 42.12450667a9.33627947 9.33627947 0 0 1-13.21295894 0l-0.00462293-0.0057792a9.34032427 9.34032427 0 0 1 0-13.2112256l42.13028587-42.12450667a9.33627947 9.33627947 0 0 1 13.21295893 0z m192.64752213-189.41811093a8.3884928 8.3884928 0 1 0 11.86178454 11.864096l43.48203733-43.49070613a8.3884928 8.3884928 0 0 0-11.86236267-11.8646752M12.9751456 496.7753056H74.561648a8.38791467 8.38791467 0 0 1 8.38791467 8.38791467 8.38791467 8.38791467 0 0 1-8.38791467 8.3879136H12.9751456A8.3884928 8.3884928 0 0 1 4.58723093 505.16553173a8.38791467 8.38791467 0 0 1 8.38791467-8.39022613z" fill="#F7CA19" p-id="5813"></path><path d="M212.0601056 387.16952427c63.19658453 0 114.427936 51.23135253 114.42793707 114.427936s-51.23135253 114.427936-114.42793707 114.42793706-114.427936-51.23250773-114.427936-114.42793706 51.23135253-114.427936 114.427936-114.427936z m-1.04429867 17.12258026a95.42654187 95.42654187 0 1 1-95.4259648 95.42596374 95.42654187 95.42654187 0 0 1 95.4259648-95.42596374z" fill="#7D7D7D" p-id="5814"></path><path d="M986.47139307 522.40253973c-0.46811413-155.27350827-126.93410133-281.45053547-282.31336854-281.45053546S422.31565973 367.12903147 421.844656 522.40253973h-32.9338624C389.53899093 348.94019093 530.84015573 208.01467413 704.44698453 208.01467413s314.90799253 140.9255168 315.53792427 314.3878656H986.47139307z" fill="#FF6161" p-id="5815"></path><path d="M956.97441387 522.11357973c-12.70265707-140.4822528-108.0939456-249.95395733-252.81638934-249.95395626-155.3792672 0-255.35287573 126.17760533-255.7244768 281.45053546h-32.941376C416.00189653 380.14780907 530.84015573 239.22229227 704.44698453 239.22229227c162.96734293 0 272.88173227 124.18378453 286.15652907 282.89128746h-33.62909973z" fill="#FF9348" p-id="5816"></path><path d="M926.6625696 521.8246208c-11.2578592-94.9566944-71.27473387-216.7236224-221.63766613-216.7236224-143.66485227 0-222.74842667 126.15506667-240.3732192 257.8425504l-34.61733974 0.70506027C445.45668693 418.4453376 537.58620267 272.16366827 705.3138624 272.16366827c167.40575893 0 241.31580373 140.8290048 252.082432 249.66095253h-30.7337248z" fill="#FFF65C" p-id="5817"></path><path d="M900.94517973 522.11357973c-14.52888-88.02802453-69.48896533-184.0712064-196.550208-184.07120533-115.87851307 0-185.0600256 101.3600352-209.57938986 217.20907413l-32.0675616 0.18493334C487.139664 424.99258027 568.02345493 305.10504427 704.65503467 305.10504427c142.7344032 0 209.5071488 114.5695264 224.29031466 217.00853546h-28.0001696z" fill="#89FF89" p-id="5818"></path><path d="M732.37202347 765.01288213c-23.70045333 28.49140053-58.62409067 50.9724448-99.8354848 50.97244374H220.54915627c-16.2221824-1.00557867-32.6870912-7.47249067-47.79735787-17.36068267a129.35904853 129.35904853 0 0 1-61.8465664-138.54449067 52.3652288 52.3652288 0 0 1 2.96472427-11.4774688 129.44920427 129.44920427 0 0 1 123.69602133-91.15514346h0.10922667c-0.0647264-1.8608992-0.10922667-3.72179733-0.10922667-5.59425494 0-87.32700907 70.87365867-158.11860267 158.30064747-158.11860266 78.97030187 0 140.55333653 48.37180907 157.85333866 125.24484373 20.07690133-9.74024427 41.1131488-13.8665856 64.93496427-13.8665856 84.08719573 0 152.2527264 74.80003947 152.2527264 158.794768a151.39220587 151.39220587 0 0 1-38.53563093 101.10517333z" fill="#A2D9F3" p-id="5819"></path><path d="M722.88259627 595.13362987c-2.85491947-38.08485333-49.412064-73.64651307-98.85880214-71.3117216-16.152832 0.83624853-13.50596373 3.37273493-13.50596373 3.37273493s85.1332288 6.87723413 106.3601888 89.37399787c2.30589653 9.19468907 7.53028267-1.15583787 6.00457707-21.4350112z" fill="#C9ECFD" p-id="5820"></path></svg>